<mxfile host="Electron" modified="2024-05-18T10:59:57.998Z" agent="Mozilla/5.0 (Windows NT 10.0; Win64; x64) AppleWebKit/537.36 (KHTML, like Gecko) draw.io/22.1.18 Chrome/120.0.6099.199 Electron/28.1.2 Safari/537.36" etag="mHjjR6FeC0bm-LHg2YQG" version="22.1.18" type="device">
  <diagram name="第 1 页" id="3LutJkANxFXfQNns2iBv">
    <mxGraphModel dx="1018" dy="686" grid="1" gridSize="10" guides="1" tooltips="1" connect="1" arrows="1" fold="1" page="1" pageScale="1" pageWidth="827" pageHeight="1169" math="0" shadow="0">
      <root>
        <mxCell id="0" />
        <mxCell id="1" parent="0" />
        <mxCell id="xiqTT7EJZeQEjQ5YxOmD-1" value="&lt;font style=&quot;font-size: 18px;&quot;&gt;货币供给&lt;/font&gt;" style="rounded=0;whiteSpace=wrap;html=1;" vertex="1" parent="1">
          <mxGeometry x="200" y="120" width="120" height="80" as="geometry" />
        </mxCell>
        <mxCell id="xiqTT7EJZeQEjQ5YxOmD-2" value="&lt;font style=&quot;font-size: 18px;&quot;&gt;货币需求&lt;/font&gt;" style="rounded=0;whiteSpace=wrap;html=1;" vertex="1" parent="1">
          <mxGeometry x="200" y="280" width="120" height="80" as="geometry" />
        </mxCell>
        <mxCell id="xiqTT7EJZeQEjQ5YxOmD-5" style="edgeStyle=orthogonalEdgeStyle;rounded=0;orthogonalLoop=1;jettySize=auto;html=1;exitX=0.1;exitY=0.5;exitDx=0;exitDy=0;exitPerimeter=0;entryX=0;entryY=0.5;entryDx=0;entryDy=0;" edge="1" parent="1" source="xiqTT7EJZeQEjQ5YxOmD-3" target="xiqTT7EJZeQEjQ5YxOmD-6">
          <mxGeometry relative="1" as="geometry">
            <mxPoint x="390" y="240.27586206896558" as="targetPoint" />
          </mxGeometry>
        </mxCell>
        <mxCell id="xiqTT7EJZeQEjQ5YxOmD-3" value="" style="shape=curlyBracket;whiteSpace=wrap;html=1;rounded=1;flipH=1;labelPosition=right;verticalLabelPosition=middle;align=left;verticalAlign=middle;size=0.5;" vertex="1" parent="1">
          <mxGeometry x="320" y="160" width="20" height="160" as="geometry" />
        </mxCell>
        <mxCell id="xiqTT7EJZeQEjQ5YxOmD-8" style="edgeStyle=orthogonalEdgeStyle;rounded=0;orthogonalLoop=1;jettySize=auto;html=1;exitX=1;exitY=0.5;exitDx=0;exitDy=0;entryX=0;entryY=0.5;entryDx=0;entryDy=0;" edge="1" parent="1" source="xiqTT7EJZeQEjQ5YxOmD-6" target="xiqTT7EJZeQEjQ5YxOmD-7">
          <mxGeometry relative="1" as="geometry" />
        </mxCell>
        <mxCell id="xiqTT7EJZeQEjQ5YxOmD-6" value="&lt;font style=&quot;font-size: 18px;&quot;&gt;价格水平&lt;br&gt;&lt;/font&gt;" style="rounded=0;whiteSpace=wrap;html=1;" vertex="1" parent="1">
          <mxGeometry x="400" y="200" width="120" height="80" as="geometry" />
        </mxCell>
        <mxCell id="xiqTT7EJZeQEjQ5YxOmD-10" style="edgeStyle=orthogonalEdgeStyle;rounded=0;orthogonalLoop=1;jettySize=auto;html=1;exitX=1;exitY=0.5;exitDx=0;exitDy=0;entryX=0;entryY=0.5;entryDx=0;entryDy=0;" edge="1" parent="1" source="xiqTT7EJZeQEjQ5YxOmD-7" target="xiqTT7EJZeQEjQ5YxOmD-9">
          <mxGeometry relative="1" as="geometry" />
        </mxCell>
        <mxCell id="xiqTT7EJZeQEjQ5YxOmD-7" value="&lt;font style=&quot;font-size: 18px;&quot;&gt;通货膨胀率&lt;/font&gt;" style="rounded=0;whiteSpace=wrap;html=1;" vertex="1" parent="1">
          <mxGeometry x="600" y="200" width="120" height="80" as="geometry" />
        </mxCell>
        <mxCell id="xiqTT7EJZeQEjQ5YxOmD-11" style="edgeStyle=orthogonalEdgeStyle;rounded=0;orthogonalLoop=1;jettySize=auto;html=1;exitX=0.5;exitY=1;exitDx=0;exitDy=0;entryX=0.5;entryY=1;entryDx=0;entryDy=0;" edge="1" parent="1" source="xiqTT7EJZeQEjQ5YxOmD-9" target="xiqTT7EJZeQEjQ5YxOmD-2">
          <mxGeometry relative="1" as="geometry">
            <Array as="points">
              <mxPoint x="860" y="400" />
              <mxPoint x="260" y="400" />
            </Array>
          </mxGeometry>
        </mxCell>
        <mxCell id="xiqTT7EJZeQEjQ5YxOmD-9" value="&lt;font style=&quot;font-size: 18px;&quot;&gt;名义利率&lt;/font&gt;" style="rounded=0;whiteSpace=wrap;html=1;" vertex="1" parent="1">
          <mxGeometry x="800" y="200" width="120" height="80" as="geometry" />
        </mxCell>
      </root>
    </mxGraphModel>
  </diagram>
</mxfile>
